ply
format ascii 1.0
comment ellell.ply
comment Licensing: This code is distributed under the GNU LGPL license.
comment Modified: 10 June 2012
comment Author: John Burkardt
element vertex 20
property float32 x
property float32 y
property float32 z
element face 36
property list uint8 int32 vertex_index
end_header
0  0  0
1  0  0
2  0  0
0  1  0
1  1  0
2  1  0
0  2  0
1  2  0
0  0  1
1  0  1
2  0  1
0  1  1
1  1  1
2  1  1
0  2  1
1  2  1
0  1  3
1  1  3
0  2  3
1  2  3
3  0  3  4
3  4  1  0
3  1  4  5  
3  5  2  1
3  3  6  7
3  7  4  3
3  8  9  12
3  12 11 8
3  9 10 13
3  13 12 9
3  16 17 19
3  19 18 16
3  0  8 11
3  11  3 0
3  3 11 14
3  14  6 3
3  11 16 18
3  18 14 11
3  4 12 15
3  15  7 4
3  12 17 19
3  19 15 12
3  2 10 13
3  13  5 2
3  0  1  9
3  9  8  0
3  1  2 10
3  10  9 1
3 11 12 17
3  17 16 11
3  4  5 13
3  13 12 4
3  6  7 15
3  15 14 6
3 14 15 19
3 19 18 14
